<svg xmlns="http://www.w3.org/2000/svg" viewBox="0 0 64 64">
  <defs>
    <radialGradient id="bg" cx="50%" cy="42%" r="70%">
      <stop offset="0%" stop-color="#1d2550"/>
      <stop offset="100%" stop-color="#0a0e1e"/>
    </radialGradient>
    <radialGradient id="core" cx="42%" cy="40%" r="65%">
      <stop offset="0%" stop-color="#c4b5fd"/>
      <stop offset="55%" stop-color="#8b5cf6"/>
      <stop offset="100%" stop-color="#5b21b6"/>
    </radialGradient>
  </defs>
  <rect x="1.5" y="1.5" width="61" height="61" rx="14" fill="url(#bg)"/>
  <rect x="1.5" y="1.5" width="61" height="61" rx="14" fill="none" stroke="#8b5cf6" stroke-opacity=".6" stroke-width="2.4"/>
  <g stroke="#fbbf24" stroke-width="2" stroke-linecap="round" stroke-dasharray="2.6 3.2" opacity=".85">
    <line x1="32" y1="35" x2="32" y2="13"/>
    <line x1="32" y1="35" x2="14" y2="49"/>
    <line x1="32" y1="35" x2="50" y2="49"/>
  </g>
  <circle cx="32" cy="12.5" r="5" fill="#38bdf8"/>
  <circle cx="32" cy="12.5" r="1.8" fill="#e0f2fe"/>
  <circle cx="13.5" cy="49.5" r="5" fill="#4ade80"/>
  <circle cx="13.5" cy="49.5" r="1.8" fill="#dcfce7"/>
  <circle cx="50.5" cy="49.5" r="5" fill="#fb7185"/>
  <circle cx="50.5" cy="49.5" r="1.8" fill="#ffe4e6"/>
  <circle cx="32" cy="35" r="11" fill="url(#core)"/>
  <circle cx="32" cy="35" r="11" fill="none" stroke="#fbbf24" stroke-width="2.4"/>
  <circle cx="28" cy="31" r="3.2" fill="#ffffff" opacity=".95"/>
  <circle cx="35.5" cy="38.5" r="1.4" fill="#ffffff" opacity=".8"/>
  <path d="M50 7 L52 12.3 L57.5 14.3 L52 16.3 L50 21.6 L48 16.3 L42.5 14.3 L48 12.3 Z" fill="#fbbf24"/>
  <path d="M56.5 20.5 L57.4 22.8 L59.8 23.7 L57.4 24.6 L56.5 27 L55.6 24.6 L53.2 23.7 L55.6 22.8 Z" fill="#fde68a"/>
</svg>
